<svg width="2408" height="781" viewBox="0 0 2408 781" fill="none" xmlns="http://www.w3.org/2000/svg">
<path d="M795.715 595V224.2H670.915V175H979.915V224.2H855.115V595H795.715ZM1059.87 602.2C1036.27 602.2 1016.47 598.2 1000.47 590.2C984.874 581.8 973.274 570.6 965.674 556.6C958.074 542.6 954.274 527.4 954.274 511C954.274 491.4 959.274 474.6 969.274 460.6C979.674 446.6 994.474 435.8 1013.67 428.2C1033.27 420.6 1056.67 416.8 1083.87 416.8H1162.47C1162.47 398.8 1159.67 384 1154.07 372.4C1148.87 360.4 1141.07 351.6 1130.67 346C1120.27 340 1107.67 337 1092.87 337C1074.47 337 1058.47 341.6 1044.87 350.8C1031.67 359.6 1023.67 373.6 1020.87 392.8H960.874C963.274 370.8 970.274 352.4 981.874 337.6C993.874 322.4 1009.47 310.8 1028.67 302.8C1047.87 294.4 1069.27 290.2 1092.87 290.2C1121.27 290.2 1145.07 295.2 1164.27 305.2C1183.87 315.2 1198.47 329.4 1208.07 347.8C1217.67 365.8 1222.47 387.2 1222.47 412V595H1172.67L1166.67 545.2H1164.27C1158.67 554.8 1152.07 563.2 1144.47 570.4C1136.87 577.2 1128.67 583 1119.87 587.8C1111.47 592.6 1102.07 596.2 1091.67 598.6C1081.67 601 1071.07 602.2 1059.87 602.2ZM1074.27 553.6C1088.27 553.6 1100.47 551 1110.87 545.8C1121.67 540.6 1130.67 533.6 1137.87 524.8C1145.47 515.6 1151.07 505.4 1154.67 494.2C1158.67 483 1160.87 471.4 1161.27 459.4H1089.87C1072.27 459.4 1058.07 461.4 1047.27 465.4C1036.87 469.4 1029.27 475 1024.47 482.2C1019.67 489.4 1017.27 497.8 1017.27 507.4C1017.27 516.6 1019.47 524.8 1023.87 532C1028.67 538.8 1035.27 544.2 1043.67 548.2C1052.47 551.8 1062.67 553.6 1074.27 553.6ZM1398.11 602.2C1369.71 602.2 1344.91 595.4 1323.71 581.8C1302.91 568.2 1286.71 549.6 1275.11 526C1263.91 502.4 1258.31 475.8 1258.31 446.2C1258.31 416.6 1263.91 390 1275.11 366.4C1286.71 342.8 1303.31 324.2 1324.91 310.6C1346.91 297 1373.11 290.2 1403.51 290.2C1429.91 290.2 1451.91 295.6 1469.51 306.4C1487.11 317.2 1500.71 329.4 1510.31 343V175H1570.31V595H1519.91L1515.71 539.2H1513.31C1504.91 553.2 1494.91 564.8 1483.31 574C1471.71 583.2 1458.71 590.2 1444.31 595C1430.31 599.8 1414.91 602.2 1398.11 602.2ZM1414.31 551.2C1433.51 551.2 1450.31 546.8 1464.71 538C1479.11 529.2 1490.11 517 1497.71 501.4C1505.71 485.4 1509.71 467 1509.71 446.2C1509.71 425 1505.71 406.6 1497.71 391C1490.11 375.4 1479.11 363.2 1464.71 354.4C1450.31 345.6 1433.31 341.2 1413.71 341.2C1394.51 341.2 1377.71 345.6 1363.31 354.4C1349.31 363.2 1338.31 375.6 1330.31 391.6C1322.71 407.2 1318.91 425.4 1318.91 446.2C1318.91 467 1322.71 485.4 1330.31 501.4C1338.31 517 1349.31 529.2 1363.31 538C1377.71 546.8 1394.71 551.2 1414.31 551.2ZM1720.81 602.2C1697.21 602.2 1677.41 598.2 1661.41 590.2C1645.81 581.8 1634.21 570.6 1626.61 556.6C1619.01 542.6 1615.21 527.4 1615.21 511C1615.21 491.4 1620.21 474.6 1630.21 460.6C1640.61 446.6 1655.41 435.8 1674.61 428.2C1694.21 420.6 1717.61 416.8 1744.81 416.8H1823.41C1823.41 398.8 1820.61 384 1815.01 372.4C1809.81 360.4 1802.01 351.6 1791.61 346C1781.21 340 1768.61 337 1753.81 337C1735.41 337 1719.41 341.6 1705.81 350.8C1692.61 359.6 1684.61 373.6 1681.81 392.8H1621.81C1624.21 370.8 1631.21 352.4 1642.81 337.6C1654.81 322.4 1670.41 310.8 1689.61 302.8C1708.81 294.4 1730.21 290.2 1753.81 290.2C1782.21 290.2 1806.01 295.2 1825.21 305.2C1844.81 315.2 1859.41 329.4 1869.01 347.8C1878.61 365.8 1883.41 387.2 1883.41 412V595H1833.61L1827.61 545.2H1825.21C1819.61 554.8 1813.01 563.2 1805.41 570.4C1797.81 577.2 1789.61 583 1780.81 587.8C1772.41 592.6 1763.01 596.2 1752.61 598.6C1742.61 601 1732.01 602.2 1720.81 602.2ZM1735.21 553.6C1749.21 553.6 1761.41 551 1771.81 545.8C1782.61 540.6 1791.61 533.6 1798.81 524.8C1806.41 515.6 1812.01 505.4 1815.61 494.2C1819.61 483 1821.81 471.4 1822.21 459.4H1750.81C1733.21 459.4 1719.01 461.4 1708.21 465.4C1697.81 469.4 1690.21 475 1685.41 482.2C1680.61 489.4 1678.21 497.8 1678.21 507.4C1678.21 516.6 1680.41 524.8 1684.81 532C1689.61 538.8 1696.21 544.2 1704.61 548.2C1713.41 551.8 1723.61 553.6 1735.21 553.6ZM2045.4 595C2026.6 595 2010 592 1995.6 586C1981.6 580 1970.8 570 1963.2 556C1956 542 1952.4 523 1952.4 499V342.4H1900.8V297.4H1952.4L1959 223H2012.4V297.4H2097V342.4H2012.4V499.6C2012.4 518.4 2015.8 531 2022.6 537.4C2029.8 543.8 2042.2 547 2059.8 547H2093.4V595H2045.4ZM2223.55 602.2C2199.95 602.2 2180.15 598.2 2164.15 590.2C2148.55 581.8 2136.95 570.6 2129.35 556.6C2121.75 542.6 2117.95 527.4 2117.95 511C2117.95 491.4 2122.95 474.6 2132.95 460.6C2143.35 446.6 2158.15 435.8 2177.35 428.2C2196.95 420.6 2220.35 416.8 2247.55 416.8H2326.15C2326.15 398.8 2323.35 384 2317.75 372.4C2312.55 360.4 2304.75 351.6 2294.35 346C2283.95 340 2271.35 337 2256.55 337C2238.15 337 2222.15 341.6 2208.55 350.8C2195.35 359.6 2187.35 373.6 2184.55 392.8H2124.55C2126.95 370.8 2133.95 352.4 2145.55 337.6C2157.55 322.4 2173.15 310.8 2192.35 302.8C2211.55 294.4 2232.95 290.2 2256.55 290.2C2284.95 290.2 2308.75 295.2 2327.95 305.2C2347.55 315.2 2362.15 329.4 2371.75 347.8C2381.35 365.8 2386.15 387.2 2386.15 412V595H2336.35L2330.35 545.2H2327.95C2322.35 554.8 2315.75 563.2 2308.15 570.4C2300.55 577.2 2292.35 583 2283.55 587.8C2275.15 592.6 2265.75 596.2 2255.35 598.6C2245.35 601 2234.75 602.2 2223.55 602.2ZM2237.95 553.6C2251.95 553.6 2264.15 551 2274.55 545.8C2285.35 540.6 2294.35 533.6 2301.55 524.8C2309.15 515.6 2314.75 505.4 2318.35 494.2C2322.35 483 2324.55 471.4 2324.95 459.4H2253.55C2235.95 459.4 2221.75 461.4 2210.95 465.4C2200.55 469.4 2192.95 475 2188.15 482.2C2183.35 489.4 2180.95 497.8 2180.95 507.4C2180.95 516.6 2183.15 524.8 2187.55 532C2192.35 538.8 2198.95 544.2 2207.35 548.2C2216.15 551.8 2226.35 553.6 2237.95 553.6Z" fill="black"/>
<rect x="410.122" y="283.83" width="63" height="419" transform="rotate(45 410.122 283.83)" fill="black"/>
<rect x="569.928" y="443.637" width="25" height="97" transform="rotate(135 569.928 443.637)" fill="black"/>
<rect x="364.868" y="238.576" width="25" height="97" transform="rotate(135 364.868 238.576)" fill="black"/>
<rect x="617.764" y="303.15" width="25" height="97" transform="rotate(90 617.764 303.15)" fill="black"/>
<rect x="327.764" y="303.15" width="25" height="97" transform="rotate(90 327.764 303.15)" fill="black"/>
<rect x="552.25" y="169.986" width="25" height="97" transform="rotate(45 552.25 169.986)" fill="black"/>
<rect x="411.764" y="122.15" width="25" height="97" fill="black"/>
<rect x="411.764" y="412.15" width="25" height="97" fill="black"/>
</svg>
