<svg width="32" height="32" viewBox="0 0 32 32" fill="none" xmlns="http://www.w3.org/2000/svg">
<path fill-rule="evenodd" clip-rule="evenodd" d="M16.0116 1.99998C8.26353 1.99998 2 8.30969 2 16.1156C2 22.3554 6.01327 27.6372 11.5807 29.5065C12.2768 29.647 12.5318 29.2028 12.5318 28.8291C12.5318 28.5019 12.5088 27.3802 12.5088 26.2114C8.61113 27.0531 7.79948 24.5287 7.79948 24.5287C7.17309 22.8929 6.24499 22.4724 6.24499 22.4724C4.96929 21.6077 6.33792 21.6077 6.33792 21.6077C7.75302 21.7012 8.49556 23.0566 8.49556 23.0566C9.74803 25.2066 11.7663 24.599 12.5782 24.225C12.6941 23.3136 13.0655 22.6826 13.4599 22.3321C10.3512 22.0049 7.08047 20.7897 7.08047 15.3677C7.08047 13.8252 7.63686 12.5633 8.51851 11.5819C8.3794 11.2314 7.89212 9.78214 8.65788 7.84248C8.65788 7.84248 9.84096 7.4685 12.5085 9.29143C13.6506 8.98243 14.8284 8.82525 16.0116 8.82394C17.1946 8.82394 18.4006 8.9877 19.5143 9.29143C22.1822 7.4685 23.3652 7.84248 23.3652 7.84248C24.1311 9.78214 23.6434 11.2314 23.5044 11.5819C24.4093 12.5633 24.9427 13.8252 24.9427 15.3677C24.9427 20.7897 21.6719 21.9814 18.54 22.3321C19.0506 22.7761 19.4911 23.6173 19.4911 24.9494C19.4911 26.8425 19.4681 28.3616 19.4681 28.8288C19.4681 29.2028 19.7234 29.647 20.4192 29.5069C25.9866 27.6369 29.9999 22.3554 29.9999 16.1156C30.0228 8.30969 23.7364 1.99998 16.0116 1.99998Z" fill="#24292F"/>
</svg>
