<svg width="32" height="32" viewBox="0 0 32 32" fill="none" xmlns="http://www.w3.org/2000/svg">
<path d="M2.34311 19.2264C2.28081 18.9608 2.59721 18.7935 2.7901 18.9864L13.0136 29.2099C13.2065 29.4028 13.0392 29.7192 12.7736 29.6569C7.61442 28.4466 3.55338 24.3856 2.34311 19.2264ZM2.00053 15.1289C1.99559 15.2083 2.02541 15.2857 2.08161 15.3419L16.6581 29.9184C16.7143 29.9746 16.7917 30.0045 16.8711 29.9995C17.5344 29.9581 18.1853 29.8707 18.8205 29.7402C19.0346 29.6962 19.109 29.4332 18.9544 29.2787L2.72127 13.0456C2.56675 12.891 2.30374 12.9654 2.25978 13.1795C2.12932 13.8147 2.04185 14.4656 2.00053 15.1289ZM3.17906 10.3175C3.13244 10.4222 3.15619 10.5445 3.2372 10.6255L21.3745 28.7628C21.4555 28.8438 21.5778 28.8676 21.6825 28.8209C22.1826 28.5982 22.6673 28.347 23.1344 28.0694C23.289 27.9776 23.3129 27.7651 23.1857 27.638L4.36198 8.81427C4.23484 8.68713 4.02243 8.71098 3.93058 8.86557C3.65301 9.33272 3.40182 9.8174 3.17906 10.3175ZM5.54444 7.06072C5.44081 6.95709 5.4344 6.79088 5.53203 6.68157C8.09826 3.80861 11.8312 2 15.9865 2C23.726 2 30 8.27404 30 16.0135C30 20.1688 28.1914 23.9017 25.3184 26.468C25.2091 26.5656 25.0429 26.5592 24.9393 26.4556L5.54444 7.06072Z" fill="#222326"/>
</svg>
