<svg width="32" height="32" viewBox="0 0 32 32" fill="none" xmlns="http://www.w3.org/2000/svg">
<g clip-path="url(#clip0_2_16)">
<path d="M18.5574 3.4478C18.2913 3.00607 17.9155 2.64065 17.4665 2.38698C17.0174 2.1333 16.5105 2 15.9948 2C15.4791 2 14.9721 2.1333 14.5231 2.38698C14.0741 2.64065 13.6983 3.00607 13.4321 3.4478L9.2165 10.6681C12.4371 12.276 15.181 14.6983 17.1759 17.6946C19.1708 20.6908 20.3472 24.1568 20.5884 27.7482H17.6285C17.3877 24.6697 16.3473 21.7074 14.6101 19.1544C12.8729 16.6014 10.4991 14.5462 7.72375 13.1924L3.82208 19.9386C5.38233 20.6383 6.7416 21.7191 7.7749 23.0816C8.8082 24.444 9.48238 26.0443 9.73545 27.7355H2.93798C2.85735 27.7298 2.77943 27.704 2.7112 27.6607C2.643 27.6175 2.58665 27.5577 2.54723 27.4872C2.50783 27.4167 2.4866 27.3375 2.48547 27.2565C2.48433 27.1758 2.50333 27.096 2.54075 27.0243L4.42433 23.821C3.78618 23.2886 3.05685 22.8762 2.27167 22.6038L0.407333 25.807C0.213245 26.14 0.0872454 26.5082 0.036652 26.8902C-0.0139413 27.2722 0.0118808 27.6605 0.112618 28.0325C0.213356 28.4042 0.387 28.7525 0.623465 29.0567C0.859928 29.3612 1.1545 29.6155 1.49006 29.8048C1.93218 30.054 2.43051 30.1863 2.93798 30.1893H12.2469C12.4198 28.0558 12.0388 25.914 11.1408 23.9711C10.2429 22.0282 8.85843 20.3501 7.12153 19.0993L8.60148 16.5366C10.7935 18.0421 12.555 20.0932 13.7122 22.4874C14.8695 24.8817 15.3824 27.5363 15.2003 30.1893H23.087C23.2706 26.1703 22.3963 22.1736 20.5514 18.5984C18.7065 15.0233 15.9556 11.9949 12.5736 9.81602L15.5655 4.6907C15.6322 4.579 15.7403 4.49815 15.8663 4.46575C15.9923 4.43335 16.1259 4.45202 16.2382 4.51772C16.5778 4.7035 29.2374 26.7937 29.4744 27.05C29.5161 27.1247 29.5374 27.2095 29.5359 27.2952C29.5346 27.381 29.5106 27.4647 29.4664 27.5382C29.4221 27.6117 29.3594 27.6722 29.2841 27.7135C29.2091 27.755 29.1244 27.7758 29.0386 27.774H25.9891C26.0276 28.5898 26.0276 29.4033 25.9891 30.215H29.0516C29.4404 30.2175 29.8259 30.1428 30.1859 29.9953C30.5456 29.848 30.8726 29.6305 31.1479 29.356C31.4231 29.0813 31.6414 28.7548 31.7894 28.3953C31.9376 28.0355 32.0131 27.6502 32.0114 27.2615C32.0119 26.7477 31.8746 26.2435 31.6141 25.8008L18.5574 3.4478Z" fill="#362D59"/>
</g>
<defs>
<clipPath id="clip0_2_16">
<rect width="32" height="32" fill="white"/>
</clipPath>
</defs>
</svg>
