<svg width="32" height="32" viewBox="0 0 32 32" fill="none" xmlns="http://www.w3.org/2000/svg">
<path d="M7.88273 19.6938C7.88273 21.3127 6.56026 22.6352 4.94138 22.6352C3.32248 22.6352 2 21.3127 2 19.6938C2 18.0749 3.32248 16.7524 4.94138 16.7524H7.88273V19.6938Z" fill="#E01E5A"/>
<path d="M9.36476 19.6938C9.36476 18.0749 10.6872 16.7524 12.3061 16.7524C13.925 16.7524 15.2475 18.0749 15.2475 19.6938V27.0587C15.2475 28.6774 13.925 30 12.3061 30C10.6872 30 9.36476 28.6774 9.36476 27.0587V19.6938Z" fill="#E01E5A"/>
<path d="M12.3061 7.88273C10.6872 7.88273 9.36476 6.56026 9.36476 4.94138C9.36476 3.32248 10.6872 2 12.3061 2C13.925 2 15.2475 3.32248 15.2475 4.94138V7.88273H12.3061Z" fill="#36C5F0"/>
<path d="M12.3062 9.36484C13.9251 9.36484 15.2476 10.6873 15.2476 12.3062C15.2476 13.9251 13.9251 15.2476 12.3062 15.2476H4.94138C3.32247 15.2476 2 13.9251 2 12.3062C2 10.6873 3.32247 9.36484 4.94138 9.36484H12.3062Z" fill="#36C5F0"/>
<path d="M24.1171 12.3062C24.1171 10.6873 25.4397 9.36484 27.0587 9.36484C28.6774 9.36484 30 10.6873 30 12.3062C30 13.9251 28.6774 15.2476 27.0587 15.2476H24.1171V12.3062Z" fill="#2EB67D"/>
<path d="M22.6352 12.3062C22.6352 13.9251 21.3127 15.2476 19.6938 15.2476C18.0749 15.2476 16.7524 13.9251 16.7524 12.3062V4.94138C16.7524 3.32248 18.0749 2 19.6938 2C21.3127 2 22.6352 3.32248 22.6352 4.94138V12.3062Z" fill="#2EB67D"/>
<path d="M19.6938 24.1172C21.3127 24.1172 22.6352 25.4397 22.6352 27.0587C22.6352 28.6774 21.3127 30 19.6938 30C18.0749 30 16.7524 28.6774 16.7524 27.0587V24.1172H19.6938Z" fill="#ECB22E"/>
<path d="M19.6938 22.6352C18.0749 22.6352 16.7524 21.3127 16.7524 19.6938C16.7524 18.0749 18.0749 16.7524 19.6938 16.7524H27.0587C28.6774 16.7524 30 18.0749 30 19.6938C30 21.3127 28.6774 22.6352 27.0587 22.6352H19.6938Z" fill="#ECB22E"/>
</svg>
