<svg width="32" height="32" viewBox="0 0 32 32" fill="none" xmlns="http://www.w3.org/2000/svg">
<path d="M18.3775 29.517C17.6622 30.4178 16.2118 29.9243 16.1946 28.7741L15.9426 11.9511H27.2543C29.3031 11.9511 30.4458 14.3176 29.1718 15.9222L18.3775 29.517Z" fill="url(#paint0_linear_2_22)"/>
<path d="M18.3775 29.517C17.6622 30.4178 16.2118 29.9243 16.1946 28.7741L15.9426 11.9511H27.2543C29.3031 11.9511 30.4458 14.3176 29.1718 15.9222L18.3775 29.517Z" fill="url(#paint1_linear_2_22)" fill-opacity="0.2"/>
<path d="M13.7771 2.44745C14.4924 1.54656 15.9427 2.04018 15.96 3.19039L16.0704 20.0134H4.90022C2.85129 20.0134 1.70856 17.6469 2.98265 16.0423L13.7771 2.44745Z" fill="#3ECF8E"/>
<defs>
<linearGradient id="paint0_linear_2_22" x1="2.44711" y1="7.77456" x2="20.6514" y2="17.5116" gradientUnits="userSpaceOnUse">
<stop stop-color="#249361"/>
<stop offset="1" stop-color="#3ECF8E"/>
</linearGradient>
<linearGradient id="paint1_linear_2_22" x1="-6.38011" y1="-1.70215" x2="-0.280293" y2="12.9419" gradientUnits="userSpaceOnUse">
<stop/>
<stop offset="1" stop-opacity="0"/>
</linearGradient>
</defs>
</svg>
